<?xml version="1.0" ?><svg id="Layer_1" style="enable-background:new 0 0 24 24;" version="1.1" viewBox="0 0 24 24" xml:space="preserve" xmlns="http://www.w3.org/2000/svg" xmlns:xlink="http://www.w3.org/1999/xlink"><style type="text/css">
	.st0{fill:#1E232D;}
</style><path class="st0" d="M12,0C5.4,0,0,5.4,0,12c0,6.6,5.4,12,12,12c6.6,0,12-5.4,12-12C24,5.4,18.6,0,12,0z M12,22C6.5,22,2,17.5,2,12  S6.5,2,12,2c5.5,0,10,4.5,10,10S17.5,22,12,22z M15,13c0-1.1-0.9-2-2-2s-2,0.9-2,2s0.9,2,2,2S15,14.1,15,13z M18,12  c-1.1,0-2,0.9-2,2s0.9,2,2,2s2-0.9,2-2S19.1,12,18,12z M14,16c-1.1,0-2,0.9-2,2c0,1.1,0.9,2,2,2s2-0.9,2-2C16,16.9,15.1,16,14,16z"/></svg>