<?xml version="1.0" ?><!DOCTYPE svg  PUBLIC '-//W3C//DTD SVG 1.1//EN'  'http://www.w3.org/Graphics/SVG/1.1/DTD/svg11.dtd'><svg height="512px" style="enable-background:new 0 0 512 512;" version="1.1" viewBox="0 0 512 512" width="512px" xml:space="preserve" xmlns="http://www.w3.org/2000/svg" xmlns:xlink="http://www.w3.org/1999/xlink"><g id="_x36_49_x2C__Building_x2C__city_x2C__landmark_x2C__usa"><g><g><g><g><path d="M486.348,500.956h-460c-5.523,0-10-4.478-10-10v-40c0-5.522,4.477-10,10-10h460c5.522,0,10,4.478,10,10v40       C496.348,496.479,491.87,500.956,486.348,500.956z M36.347,480.956h440v-20h-440V480.956z"/></g><g><path d="M276.348,460.956h-40c-5.523,0-10-4.478-10-10v-260h-10c-5.523,0-10-4.477-10-10v-50c0-5.523,4.477-10,10-10h80       c5.522,0,10,4.477,10,10v50c0,5.523-4.478,10-10,10h-10v260C286.348,456.479,281.87,460.956,276.348,460.956z M246.347,440.956       h20v-260c0-5.523,4.478-10,10-10h10v-30h-60v30h10c5.523,0,10,4.477,10,10V440.956z"/></g><g><path d="M316.348,250.957h-40c-5.522,0-10-4.477-10-10v-60c0-5.523,4.478-10,10-10h40c5.522,0,10,4.477,10,10v60       C326.348,246.479,321.87,250.957,316.348,250.957z M286.348,230.957h20v-40h-20V230.957z"/></g><g><path d="M236.347,250.957h-40c-5.523,0-10-4.477-10-10v-60c0-5.523,4.477-10,10-10h40c5.523,0,10,4.477,10,10v60       C246.347,246.479,241.87,250.957,236.347,250.957z M206.347,230.957h20v-40h-20V230.957z"/></g><g><path d="M416.348,460.956h-40c-5.522,0-10-4.478-10-10v-40c0-5.522,4.478-10,10-10h40c5.522,0,10,4.478,10,10v40       C426.348,456.479,421.87,460.956,416.348,460.956z M386.348,440.956h20v-20h-20V440.956z"/></g><g><path d="M316.348,460.956h-40c-5.522,0-10-4.478-10-10v-210c0-5.523,4.478-10,10-10h60c5.522,0,10,4.477,10,10v140       c0,5.522-4.478,10-10,10h-10v60C326.348,456.479,321.87,460.956,316.348,460.956z M286.348,440.956h20v-60       c0-5.522,4.478-10,10-10h10v-120h-40V440.956z"/></g><g><path d="M376.348,460.956h-60c-5.522,0-10-4.478-10-10v-70c0-5.522,4.478-10,10-10h60c5.522,0,10,4.478,10,10v70       C386.348,456.479,381.87,460.956,376.348,460.956z M326.348,440.956h40v-50h-40V440.956z"/></g><g><path d="M376.348,390.956h-40c-5.522,0-10-4.478-10-10v-40c0-5.522,4.478-10,10-10h40c5.522,0,10,4.478,10,10v40       C386.348,386.479,381.87,390.956,376.348,390.956z M346.348,370.956h20v-20h-20V370.956z"/></g><g><path d="M136.347,460.956h-40c-5.523,0-10-4.478-10-10v-40c0-5.522,4.477-10,10-10h40c5.523,0,10,4.478,10,10v40       C146.347,456.479,141.87,460.956,136.347,460.956z M106.347,440.956h20v-20h-20V440.956z"/></g><g><path d="M236.347,460.956h-40c-5.523,0-10-4.478-10-10v-60h-10c-5.523,0-10-4.478-10-10v-140c0-5.523,4.477-10,10-10h60       c5.523,0,10,4.477,10,10v210C246.347,456.479,241.87,460.956,236.347,460.956z M206.347,440.956h20v-190h-40v120h10       c5.523,0,10,4.478,10,10V440.956z"/></g><g><path d="M196.347,460.956h-60c-5.523,0-10-4.478-10-10v-70c0-5.522,4.477-10,10-10h60c5.523,0,10,4.478,10,10v70       C206.347,456.479,201.87,460.956,196.347,460.956z M146.347,440.956h40v-50h-40V440.956z"/></g><g><path d="M176.347,390.956h-40c-5.523,0-10-4.478-10-10v-40c0-5.522,4.477-10,10-10h40c5.523,0,10,4.478,10,10v40       C186.347,386.479,181.87,390.956,176.347,390.956z M146.347,370.956h20v-20h-20V370.956z"/></g><g><path d="M276.348,460.956h-40c-5.523,0-10-4.478-10-10v-110c0-5.522,4.477-10,10-10h40c5.522,0,10,4.478,10,10v110       C286.348,456.479,281.87,460.956,276.348,460.956z M246.347,440.956h20v-90h-20V440.956z"/></g><g><path d="M286.348,140.957h-60c-3.08,0-5.987-1.418-7.882-3.846c-1.896-2.427-2.566-5.592-1.82-8.58l10-40       c1.113-4.452,5.113-7.575,9.702-7.575h40c4.589,0,8.589,3.123,9.701,7.575l10,40c0.747,2.987,0.076,6.152-1.819,8.58       C292.335,139.538,289.427,140.957,286.348,140.957z M239.155,120.957h34.385l-5-20h-24.385L239.155,120.957z"/></g><g><path d="M256.347,100.957c-5.523,0-10-4.477-10-10v-70c0-5.523,4.477-10,10-10s10,4.477,10,10v70       C266.348,96.479,261.87,100.957,256.347,100.957z"/></g></g></g></g></g><g id="Layer_1"/></svg>