<?xml version="1.0" ?><svg viewBox="0 0 24 24" xmlns="http://www.w3.org/2000/svg"><title/><g data-name="Layer 2" id="Layer_2"><path d="M18.38,5.66,16,5.18V1.38L10.76,4A7.91,7.91,0,0,0,3,11.92V16H7.22l-1,4H4v2H20V20H17.82l-1.6-8h.63A3.27,3.27,0,0,0,21,8.86,3.28,3.28,0,0,0,18.38,5.66Zm.1,4.23A1.27,1.27,0,0,1,17.3,10l-5.77,0L9.83,7.45,8.17,8.55,10.46,12h3.72l1.6,8H8.28L10,13.24,8,12.76,7.72,14H5V11.92a5.92,5.92,0,0,1,.84-3A6,6,0,0,1,11,6h.24L14,4.62v2.2l4,.8a1.27,1.27,0,0,1,1,1.24A1.25,1.25,0,0,1,18.47,9.88Z"/></g></svg>