<?xml version="1.0" ?><svg fill="none" height="24" viewBox="0 0 24 24" width="24" xmlns="http://www.w3.org/2000/svg"><path clip-rule="evenodd" d="M12 2.75C11.0361 2.75 10.1149 2.92623 9.26547 3.24769C8.87807 3.3943 8.44517 3.19911 8.29855 2.81171C8.15194 2.42431 8.34713 1.99141 8.73453 1.84479C9.7509 1.46014 10.8518 1.25 12 1.25C17.1108 1.25 21.25 5.40533 21.25 10.5263C21.25 12.9896 20.1743 15.9425 18.5453 18.3032C16.9311 20.6425 14.6251 22.6069 12.0411 22.7489C11.8354 22.7602 11.6341 22.6863 11.4844 22.5447C11.3348 22.403 11.25 22.2061 11.25 22V19.7726C6.49029 19.3897 2.75 15.3943 2.75 10.5263C2.75 8.57315 3.35276 6.75877 4.38217 5.26298C4.617 4.92177 5.08398 4.83552 5.42519 5.07035C5.76641 5.30518 5.85265 5.77216 5.61783 6.11337C4.75524 7.36675 4.25 8.88612 4.25 10.5263C4.25 14.8232 7.72198 18.3026 12 18.3026C12.4142 18.3026 12.75 18.6384 12.75 19.0526V21.1287C14.3824 20.717 16.0047 19.3439 17.3107 17.4513C18.8131 15.2741 19.75 12.613 19.75 10.5263C19.75 6.22939 16.278 2.75 12 2.75Z" fill="black" fill-rule="evenodd"/><path clip-rule="evenodd" d="M5.75 8C5.75 7.58579 6.08579 7.25 6.5 7.25H10.5C10.9142 7.25 11.25 7.58579 11.25 8V12C11.25 13.5188 10.0188 14.75 8.5 14.75H8C7.58579 14.75 7.25 14.4142 7.25 14V12.75H6.5C6.08579 12.75 5.75 12.4142 5.75 12V8ZM7.25 11.25H8C8.41421 11.25 8.75 11.5858 8.75 12V13.225C9.32056 13.1092 9.75 12.6047 9.75 12V8.75H7.25V11.25Z" fill="black" fill-rule="evenodd"/><path clip-rule="evenodd" d="M12.75 8C12.75 7.58579 13.0858 7.25 13.5 7.25H17.5C17.9142 7.25 18.25 7.58579 18.25 8V12C18.25 13.5188 17.0188 14.75 15.5 14.75H15C14.5858 14.75 14.25 14.4142 14.25 14V12.75H13.5C13.0858 12.75 12.75 12.4142 12.75 12V8ZM14.25 11.25H15C15.4142 11.25 15.75 11.5858 15.75 12V13.225C16.3206 13.1092 16.75 12.6047 16.75 12V8.75H14.25V11.25Z" fill="black" fill-rule="evenodd"/></svg>