<?xml version="1.0" ?><svg viewBox="0 0 24 24" xmlns="http://www.w3.org/2000/svg"><title/><g data-name="Layer 2" id="Layer_2"><path d="M12,2A10,10,0,1,0,22,12,10,10,0,0,0,12,2Zm-.91,9.3a6,6,0,0,1-2.54.41A9.73,9.73,0,0,1,11.81,5l1.12-1a7.93,7.93,0,0,1,3,1A8,8,0,0,0,11.09,11.3Zm-5,4.34-1.42-.47A8,8,0,0,1,4,12.07a7.93,7.93,0,0,0,7.85,1.08,6,6,0,0,1,1.62,2A9.74,9.74,0,0,1,6.07,15.64ZM9.67,4.35a11.69,11.69,0,0,0-3.09,6.93,6,6,0,0,1-1.45-.85l-.81-.65A8,8,0,0,1,9.67,4.35ZM6.55,17.84a11.51,11.51,0,0,0,7.53-.79,6,6,0,0,1,0,1.68l-.16,1a7.9,7.9,0,0,1-7.36-1.92Zm9.51,1a8,8,0,0,0-3-7.32A6,6,0,0,1,14,9.15a9.73,9.73,0,0,1,4.14,6.16l.3,1.45A8,8,0,0,1,16.06,18.88Zm3.73-5.08a11.69,11.69,0,0,0-4.45-6.13,6,6,0,0,1,1.46-.83l1-.38a7.92,7.92,0,0,1,2,7.34Z"/></g></svg>